<svg id="svg-source" height="0" version="1.1" 
  xmlns="http://www.w3.org/2000/svg" style="position:absolute; margin-left: -100%" 
  xmlns:xlink="http://www.w3.org/1999/xlink">
  <g id="dropdown" data-iconmelon="Playear:921c66d1fa04a708a2be1686ebe02d9f">
    <path d="M31.576,8.301c-0.565-0.565-1.482-0.565-2.046,0L17.024,20.808c-0.565,0.565-1.483,0.564-2.047,0.001L2.47,8.301
	c-0.565-0.565-1.481-0.565-2.046,0c-0.565,0.565-0.565,1.48,0,2.047l12.507,12.507c0.846,0.846,1.957,1.27,3.069,1.27
	c1.112,0,2.224-0.424,3.07-1.27l12.506-12.507C32.141,9.781,32.141,8.866,31.576,8.301z"></path>
  </g>
  <g id="credit-card" data-iconmelon="e-commerce icons:c3144b166f93e0f6b73aee04a0a48397">
    <path d="M29.018,4.751H2.981C1.337,4.751,0,6.089,0,7.733v16.534c0,1.644,1.337,2.981,2.981,2.981h26.036
	c1.645,0,2.982-1.338,2.982-2.981V7.733C32,6.089,30.662,4.751,29.018,4.751z M30.638,24.267c0,0.893-0.727,1.62-1.621,1.62H2.981
	c-0.893,0-1.62-0.727-1.62-1.62V13.603h29.276V24.267z M30.638,10.236H1.362V7.733c0-0.894,0.727-1.62,1.62-1.62h26.036
	c0.894,0,1.621,0.727,1.621,1.62V10.236z M8.848,22.494H2.724v1.338h6.124V22.494z M19.043,22.494H9.548v1.338h9.495V22.494z"></path>
  </g>
  <g id="money" data-iconmelon="e-commerce icons:7f58faae40137e86b0d0b039cd184623">
    <path d="M16,0C7.177,0,0,7.178,0,16s7.177,16,16,16c8.822,0,16-7.178,16-16S24.822,0,16,0z M16,30.589
	C7.956,30.589,1.411,24.045,1.411,16C1.411,7.956,7.956,1.411,16,1.411c8.045,0,14.589,6.545,14.589,14.589
	C30.589,24.045,24.045,30.589,16,30.589z M16,4.396C9.601,4.396,4.396,9.601,4.396,16c0,6.398,5.205,11.604,11.604,11.604
	c6.398,0,11.604-5.206,11.604-11.604C27.604,9.601,22.398,4.396,16,4.396z M16,26.193c-5.62,0-10.193-4.572-10.193-10.193
	C5.807,10.38,10.38,5.806,16,5.806S26.193,10.38,26.193,16C26.193,21.621,21.62,26.193,16,26.193z M17.096,14.979
	c-0.134-0.03-0.268-0.059-0.401-0.087v-2.431c0.486,0.174,0.849,0.532,0.977,1.207h2.21c-0.207-1.944-1.563-2.835-3.187-3.05V9.247
	h-1.393v1.338c-1.631,0.138-3.441,0.892-3.441,2.868c0,2.053,1.522,2.64,3.082,2.992c0.12,0.028,0.239,0.055,0.359,0.081v2.867
	c-0.818-0.157-1.425-0.648-1.529-1.697h-2.117c0.051,2.18,1.535,3.303,3.646,3.482v1.513h1.393v-1.523
	c1.761-0.208,3.502-1.146,3.502-3.237C20.196,15.937,18.637,15.35,17.096,14.979z M15.302,14.56
	c-0.771-0.231-1.325-0.555-1.325-1.204c0-0.703,0.722-0.941,1.325-1.01V14.56z M16.694,19.398v-2.536
	c0.78,0.232,1.353,0.561,1.386,1.265C18.12,18.966,17.403,19.285,16.694,19.398z"></path>
  </g>
  <g id="notepad" data-iconmelon="Simple Line Icons:173152b2b601fc5a81c91753d0d666f9">
    <g>
      <path  d="M24.542,1.826c-0.049-0.013-0.096-0.01-0.142-0.006h-2.402V0.542c0-0.3-0.245-0.542-0.542-0.542
		c-0.299,0-0.542,0.242-0.542,0.542V1.82h-2.549V0.542c0-0.3-0.245-0.542-0.542-0.542c-0.3,0-0.545,0.242-0.545,0.542V1.82h-2.552
		V0.542c0-0.3-0.242-0.542-0.542-0.542c-0.297,0-0.541,0.242-0.541,0.542V1.82h-2.55V0.542c0-0.3-0.243-0.542-0.542-0.542
		s-0.542,0.242-0.542,0.542V1.82H7.604c-0.049-0.001-0.092-0.001-0.142,0C6.193,1.861,5.174,2.903,5.174,4.18v5.454v21.825
		C5.174,31.758,5.418,32,5.715,32h20.57c0.3,0,0.54-0.242,0.54-0.541V9.634V4.18C26.826,2.903,25.809,1.861,24.542,1.826z
		 M6.257,4.18c0-0.703,0.57-1.273,1.274-1.273c0.003,0,0.003,0,0.008,0h2.47v1.275c0,0.3,0.243,0.541,0.542,0.541
		s0.542-0.241,0.542-0.541V2.906h2.55v1.275c0,0.3,0.244,0.541,0.541,0.541c0.3,0,0.542-0.241,0.542-0.541V2.906h2.552v1.275
		c0,0.3,0.245,0.541,0.545,0.541c0.297,0,0.542-0.241,0.542-0.541V2.906h2.549v1.275c0,0.3,0.243,0.541,0.542,0.541
		c0.297,0,0.542-0.241,0.542-0.541V2.906h2.464c0.006,0,0.006,0,0.011,0c0.699,0,1.27,0.57,1.27,1.273v4.914H6.257V4.18z
		 M25.742,12.734H6.257v-2.557h19.484V12.734z M6.257,24.725h19.484v2.555H6.257V24.725z M6.257,23.643v-2.555h19.484v2.555H6.257z
		 M6.257,20.006v-2.555h19.484v2.555H6.257z M6.257,16.369v-2.55h19.484v2.55H6.257z M6.257,30.918v-2.555h19.484v2.555H6.257z"></path>
    </g>
  </g>
  <g id="graph-pie" data-iconmelon="Simple Line Icons:71c74430bea16c2cc5114c5abdd1f0b6">
    <g>
      <path  d="M17.703,0.025h-0.579v15.794H31.92l0.041-0.534C31.983,14.961,32,14.639,32,14.315
		C32,6.436,25.586,0.025,17.703,0.025z M30.837,14.661H18.281V1.194c6.979,0.302,12.562,6.071,12.562,13.121
		C30.843,14.431,30.84,14.548,30.837,14.661z"></path>
      <path  d="M14.873,3.389h-0.578C6.412,3.389,0,9.802,0,17.685c0,7.88,6.412,14.291,14.295,14.291
		c7.496,0,13.76-5.855,14.253-13.333l0.047-0.616H14.873V3.389z M27.344,19.183c-0.75,6.572-6.365,11.637-13.049,11.637
		c-7.244,0-13.138-5.891-13.138-13.135c0-7.051,5.579-12.823,12.559-13.127v14.625H27.344z"></path>
    </g>
  </g>
  <g id="arrow-left" data-iconmelon="Simple Line Icons:85d8e0fe3e63b993bd72f47752368cd6">
    <g>
      <path  d="M16.003,0C7.18,0,0,7.176,0,15.999C0,24.822,7.18,32,16.003,32C24.823,32,32,24.822,32,15.999
		C32,7.176,24.823,0,16.003,0z M16.003,30.852c-8.188,0-14.854-6.665-14.854-14.854c0-8.188,6.665-14.849,14.854-14.849
		c8.186,0,14.851,6.661,14.851,14.849C30.854,24.187,24.188,30.852,16.003,30.852z"></path>
      <path  d="M20.191,8.017c-0.225-0.223-0.586-0.223-0.81,0l-7.979,7.981l7.979,7.984
		c0.112,0.112,0.257,0.168,0.405,0.168c0.147,0,0.295-0.056,0.404-0.168c0.225-0.225,0.225-0.587,0-0.812l-7.165-7.173l7.165-7.169
		C20.416,8.605,20.416,8.242,20.191,8.017z"></path>
    </g>
  </g>
  <g id="arrow-right" data-iconmelon="Simple Line Icons:b11fd5edd69f44cef01f6dba7f72aebc">
    <g>
      <path  d="M16.003,0C7.177,0,0,7.178,0,16.003C0,24.825,7.177,32,16.003,32C24.823,32,32,24.825,32,16.003
		C32,7.178,24.823,0,16.003,0z M16.003,30.852c-8.191,0-14.856-6.662-14.856-14.849c0-8.19,6.665-14.854,14.856-14.854
		c8.186,0,14.848,6.663,14.848,14.854C30.851,24.19,24.188,30.852,16.003,30.852z"></path>
      <path  d="M11.806,8.017c-0.225,0.225-0.225,0.588,0,0.812l7.174,7.174l-7.174,7.168
		c-0.225,0.225-0.225,0.587,0,0.812c0.112,0.112,0.26,0.168,0.407,0.168c0.146,0,0.293-0.056,0.405-0.168l7.983-7.979l-7.983-7.986
		C12.395,7.794,12.03,7.794,11.806,8.017z"></path>
    </g>
  </g>
  <g id="tag" data-iconmelon="Simple Line Icons:1fe3f7f1481514daa19bb506d8563303">
    <g>
      <path  d="M16.001,0C10.448,0,5.933,4.517,5.933,10.067c0,4.068,4.008,11.777,7.373,17.527
		c1.249,2.135,2.151,3.557,2.151,3.557L16.001,32l0.541-0.849c0,0,0.904-1.422,2.152-3.557c3.363-5.75,7.374-13.459,7.374-17.527
		C26.068,4.517,21.551,0,16.001,0z M17.584,26.945c-0.649,1.112-1.204,2.026-1.583,2.644c-0.382-0.617-0.937-1.531-1.585-2.644
		c-2.69-4.598-7.199-12.899-7.199-16.878c0-4.842,3.939-8.781,8.784-8.781c4.842,0,8.781,3.939,8.781,8.781
		C24.782,14.046,20.272,22.348,17.584,26.945z"></path>
      <path  d="M16.001,3.771c-3.473,0-6.298,2.825-6.298,6.297c0,3.475,2.825,6.297,6.298,6.297
		c3.472,0,6.296-2.822,6.296-6.297C22.297,6.596,19.473,3.771,16.001,3.771z M16.001,15.079c-2.765,0-5.013-2.246-5.013-5.012
		c0-2.762,2.248-5.01,5.013-5.01c2.762,0,5.011,2.248,5.011,5.01C21.012,12.833,18.763,15.079,16.001,15.079z"></path>
    </g>
  </g>
  <g id="calendar" data-iconmelon="Simple Line Icons:aae53f8ef381b4cdd71527c3eb1ae262">
    <path  d="M27.982,3.426H26.86V2.292C26.86,1.028,25.832,0,24.566,0c-1.263,0-2.291,1.028-2.291,2.292v1.134H9.727
	V2.292C9.727,1.028,8.699,0,7.437,0C6.171,0,5.146,1.028,5.146,2.292v1.134H3.993c-1.255,0.009-2.28,1.037-2.28,2.295v5.138v6.845
	v6.858v6.857C1.713,31.74,1.976,32,2.294,32h6.858h6.858h6.843h6.855c0.318,0,0.578-0.26,0.578-0.581v-6.857v-6.858v-6.845V5.721
	C30.287,4.463,29.264,3.436,27.982,3.426z M15.431,11.439v5.686H9.732v-5.686H15.431z M22.275,11.439v5.686h-5.687v-5.686H22.275z
	 M29.129,11.439v5.686h-5.695v-5.686H29.129z M8.572,17.125H2.874v-5.686h5.698V17.125z M2.874,18.284h5.698v5.698H2.874V18.284z
	 M9.732,18.284h5.698v5.698H9.732V18.284z M16.589,18.284h5.687v5.698h-5.687V18.284z M23.434,18.284h5.695v5.698h-5.695V18.284z
	 M23.434,2.292c0-0.625,0.508-1.133,1.133-1.133s1.131,0.507,1.131,1.133v1.714v1.715c0,0.625-0.506,1.133-1.131,1.133
	s-1.133-0.508-1.133-1.133V4.006V2.292z M6.303,2.292c0-0.625,0.506-1.133,1.134-1.133c0.624,0,1.13,0.507,1.13,1.133v1.714v1.715
	c0,0.625-0.506,1.133-1.13,1.133c-0.628,0-1.134-0.508-1.134-1.133V4.006V2.292z M2.874,5.721c0-0.621,0.506-1.13,1.146-1.135h1.125
	v1.135c0,1.264,1.025,2.291,2.291,2.291c1.263,0,2.29-1.027,2.29-2.291V4.586h12.549v1.135c0,1.264,1.028,2.291,2.291,2.291
	c1.266,0,2.294-1.027,2.294-2.291V4.586h1.142c0.621,0.005,1.127,0.514,1.127,1.135v4.559h-6.185h-0.091h-0.086h-6.665h-0.092
	h-0.088H9.152H2.874V5.721z M2.874,25.142h5.698v5.697H2.874V25.142z M9.732,25.142h5.698v5.697H9.732V25.142z M16.589,25.142h5.687
	v5.697h-5.687V25.142z M29.129,30.839h-5.695v-5.697h5.695V30.839z"></path>
  </g>
  <g id="list" data-iconmelon="Simple Line Icons:7ede6f3b3da91a8110905796ea221987">
    <g>
      <path  d="M2.892,13.107C1.298,13.107,0,14.403,0,15.999c0,1.595,1.298,2.894,2.892,2.894
		c1.597,0,2.893-1.299,2.893-2.894C5.784,14.403,4.488,13.107,2.892,13.107z M2.892,17.703c-0.938,0-1.701-0.765-1.701-1.704
		c0-0.94,0.763-1.703,1.701-1.703c0.94,0,1.704,0.763,1.704,1.703C4.596,16.938,3.832,17.703,2.892,17.703z"></path>
      <path  d="M2.892,1.624C1.298,1.624,0,2.921,0,4.515C0,6.11,1.298,7.409,2.892,7.409c1.597,0,2.893-1.299,2.893-2.895
		C5.784,2.921,4.488,1.624,2.892,1.624z M2.892,6.222c-0.938,0-1.701-0.766-1.701-1.707c0-0.939,0.763-1.699,1.701-1.699
		c0.94,0,1.704,0.76,1.704,1.699C4.596,5.456,3.832,6.222,2.892,6.222z"></path>
      <path  d="M2.892,24.589C1.298,24.589,0,25.886,0,27.484c0,1.594,1.298,2.892,2.892,2.892
		c1.597,0,2.893-1.298,2.893-2.892C5.784,25.886,4.488,24.589,2.892,24.589z M2.892,29.187c-0.938,0-1.701-0.764-1.701-1.702
		c0-0.943,0.763-1.706,1.701-1.706c0.94,0,1.704,0.763,1.704,1.706C4.596,28.423,3.832,29.187,2.892,29.187z"></path>
      <path  d="M31.404,26.889H9.78c-0.329,0-0.594,0.269-0.594,0.596c0,0.326,0.265,0.594,0.594,0.594h21.624
		c0.33,0,0.596-0.268,0.596-0.594C32,27.157,31.734,26.889,31.404,26.889z"></path>
      <path  d="M31.404,15.401H9.78c-0.329,0-0.594,0.27-0.594,0.598c0,0.326,0.265,0.592,0.594,0.592h21.624
		c0.33,0,0.596-0.266,0.596-0.592C32,15.671,31.734,15.401,31.404,15.401z"></path>
      <path  d="M31.404,3.92H9.78c-0.329,0-0.594,0.267-0.594,0.595S9.451,5.109,9.78,5.109h21.624
		c0.33,0,0.596-0.267,0.596-0.595S31.734,3.92,31.404,3.92z"></path>
    </g>
  </g>
  <g id="presentation" data-iconmelon="Simple Line Icons:ebe7ad3212c0ec734ae544c045c54d0c">
    <g>
      <path  d="M31.998,1.538C31.998,0.692,31.311,0,30.462,0H1.54C0.691,0,0.002,0.692,0.002,1.538
		c0,0.645,0.399,1.193,0.965,1.422v20.757c0,0.316,0.257,0.574,0.573,0.574h13.89v2.891l-9.28,3.71
		c-0.296,0.119-0.438,0.453-0.319,0.748C5.92,31.863,6.134,32,6.361,32c0.071,0,0.145-0.014,0.213-0.041l9.431-3.77l9.426,3.77
		C25.502,31.986,25.574,32,25.645,32c0.229,0,0.443-0.137,0.533-0.36c0.117-0.295-0.026-0.628-0.318-0.748l-9.281-3.71v-2.891
		h13.884c0.317,0,0.572-0.258,0.572-0.574V2.959C31.6,2.731,31.998,2.183,31.998,1.538z M1.54,1.148h28.922
		c0.214,0,0.391,0.175,0.391,0.389c0,0.216-0.177,0.392-0.391,0.392H1.54c-0.215,0-0.39-0.175-0.39-0.392
		C1.15,1.324,1.325,1.148,1.54,1.148z M29.888,23.142H2.114V3.076h27.773V23.142z"></path>
      <path  d="M5.396,20.434c0.17,0,0.335-0.075,0.449-0.216l6.723-8.388l5.654,4.614l7.869-9.724
		c0.198-0.247,0.16-0.607-0.087-0.808c-0.246-0.197-0.607-0.162-0.807,0.085l-7.143,8.827l-5.658-4.617L4.949,19.5
		c-0.198,0.246-0.158,0.607,0.089,0.808C5.143,20.393,5.271,20.434,5.396,20.434z"></path>
    </g>
  </g>
  <g id="check" data-iconmelon="Simple Line Icons:62e3519b8d1506453144dd389ae63264">
    <g>
      <path  d="M16.29,0.003l-0.296-0.002c-8.659,0-15.832,7.046-15.991,15.708c-0.161,8.822,6.884,16.128,15.707,16.289
		L16.006,32c8.659,0,15.833-7.048,15.991-15.707C32.156,7.471,25.111,0.165,16.29,0.003z M16.006,30.852l-0.276-0.004
		C7.543,30.701,1.002,23.919,1.152,15.731C1.297,7.69,7.958,1.15,15.994,1.15l0.277,0.003c8.186,0.147,14.726,6.929,14.577,15.114
		C30.703,24.311,24.044,30.852,16.006,30.852z"></path>
      <path  d="M22.491,11.622l-7.915,7.632l-4.953-5.138c-0.221-0.229-0.586-0.235-0.812-0.014
		c-0.228,0.219-0.236,0.581-0.016,0.812l5.354,5.55c0.109,0.112,0.251,0.221,0.414,0.176c0.147,0,0.291-0.06,0.398-0.162
		l8.326-8.033c0.229-0.219,0.235-0.582,0.016-0.81C23.082,11.409,22.72,11.403,22.491,11.622z"></path>
    </g>
  </g>
  <g id="close" data-iconmelon="Simple Line Icons:2f4e8bedaee4fefec7459a2fb2c48d4b">
    <g>
      <path  d="M16.288,0.003l-0.295-0.002c-8.659,0-15.833,7.046-15.99,15.708c-0.16,8.822,6.885,16.128,15.705,16.289
		L16.004,32c8.659,0,15.835-7.048,15.993-15.707c0.078-4.275-1.512-8.323-4.48-11.396C24.549,1.816,20.562,0.083,16.288,0.003z
		 M16.004,30.852l-0.276-0.004C7.542,30.701,1,23.919,1.15,15.731C1.297,7.69,7.955,1.15,15.993,1.15l0.275,0.003
		c3.968,0.068,7.667,1.683,10.421,4.54c2.755,2.855,4.231,6.611,4.16,10.574C30.702,24.311,24.041,30.852,16.004,30.852z"></path>
      <path  d="M21.153,10.236l-5.139,4.953l-4.957-5.139c-0.219-0.229-0.583-0.234-0.811-0.016
		c-0.229,0.219-0.234,0.584-0.015,0.812l4.955,5.141l-5.137,4.952c-0.229,0.222-0.235,0.583-0.017,0.812
		c0.113,0.117,0.263,0.174,0.413,0.174c0.144,0,0.288-0.052,0.399-0.16l5.136-4.953l4.953,5.136
		c0.115,0.118,0.265,0.178,0.415,0.178c0.145,0,0.287-0.054,0.397-0.163c0.229-0.219,0.237-0.583,0.015-0.812l-4.951-5.137
		l5.137-4.953c0.229-0.22,0.234-0.582,0.016-0.812C21.744,10.021,21.38,10.02,21.153,10.236z"></path>
    </g>
  </g>
</svg>