<svg id="svg-source" height="0" version="1.1" 
  xmlns="http://www.w3.org/2000/svg" style="position:absolute; margin-left: -100%" 
  xmlns:xlink="http://www.w3.org/1999/xlink">
  <g id="left-arrow" data-iconmelon="Line icon set:a006a98831cee75a2bfb98deccde127a">
    <g id="Arrow_x5F_Left_x5F_1">
      <g>
        <path  d="M16.293,16.734C16.104,16.545,16,16.294,16,16.027c0-0.268,0.104-0.518,0.291-0.705l8.536-8.494
			C25.583,6.073,26,5.068,26,4s-0.416-2.072-1.172-2.828C24.073,0.416,23.069,0,22,0c-1.068,0-2.072,0.416-2.816,1.16L7.465,12.492
			C6.521,13.436,6,14.691,6,16.027s0.521,2.592,1.479,3.551l10.084,9.671l1.606,1.606c0.756,0.756,1.761,1.172,2.829,1.172
			s2.073-0.416,2.828-1.171C25.583,30.101,26,29.096,26,28.028c0-1.068-0.416-2.073-1.175-2.832L16.293,16.734z M23.414,29.441
			c-0.756,0.756-2.073,0.756-2.829,0L8.879,18.148C8.313,17.582,8,16.828,8,16.027c0-0.802,0.312-1.555,0.867-2.109L20.585,2.586
			C20.963,2.208,21.465,2,22,2s1.036,0.208,1.414,0.586S24,3.466,24,4s-0.208,1.036-0.584,1.412l-8.536,8.494
			C14.313,14.473,14,15.226,14,16.027c0,0.801,0.312,1.555,0.882,2.124l8.531,8.462C23.792,26.991,24,27.494,24,28.028
			C24,28.562,23.792,29.063,23.414,29.441z"></path>
      </g>
    </g>
  </g>
  <g id="folder" data-iconmelon="Line icon set:8f62d43a7b687b320ce144724b790ab0">
    <g id="Folder">
      <g>
        <path  d="M29,10V9c0-1.654-1.346-3-3-3H14c-0.552,0-1-0.448-1-1c0-1.654-1.346-3-3-3H6C4.346,2,3,3.346,3,5v5
			c-1.654,0-3,1.346-3,3l2,14c0,1.654,1.346,3,3,3h22c1.654,0,3-1.346,3-3l2-14C32,11.346,30.654,10,29,10z M5,5
			c0-0.552,0.448-1,1-1h4c0.552,0,1,0.448,1,1c0,1.654,1.346,3,3,3h12c0.552,0,1,0.448,1,1v1H5V5z M28,27c0,0.551-0.449,1-1,1H5
			c-0.551,0-1-0.449-1-1L2,13c0-0.551,0.449-1,1-1h26c0.551,0,1,0.449,1,1L28,27z M14.5,14H7.148c-0.706,0-1.345,0.286-1.796,0.807
			c-0.447,0.515-0.647,1.208-0.549,1.901l0.421,3.003c0.176,1.232,1.242,2.273,2.326,2.273L14.5,22c1.379,0,2.5-1.121,2.5-2.5v-3
			C17,15.121,15.879,14,14.5,14z M15,19.5c0,0.275-0.224,0.499-0.499,0.5l-6.909-0.012c-0.109-0.033-0.349-0.293-0.387-0.557
			L6.784,16.43c-0.017-0.119,0.013-0.236,0.078-0.312C6.931,16.04,7.026,16,7.148,16H14.5c0.275,0,0.5,0.225,0.5,0.5V19.5z"></path>
      </g>
    </g>
  </g>
  <g id="photo" data-iconmelon="Smallicons:65ef4cbe21efd49984cef9c5fba2fbe0">
    <path fill="#51BBA8" d="M5.015.003h22c2.762 0 5 2.239 5 5v22c0 2.762-2.238 5-5 5h-22c-2.762 0-5-2.238-5-5v-22c0-2.761 2.239-5 5-5z"></path>
    <path fill="#475F6C" d="M16.015 5.003c6.075 0 11 4.926 11 11 0 6.075-4.925 11-11 11s-11-4.925-11-11c0-6.074 4.925-11 11-11z"></path>
    <path fill="#2B414D" d="M16.015 10.003c3.314 0 6 2.687 6 6s-2.686 6-6 6c-3.313 0-6-2.687-6-6s2.687-6 6-6z"></path>
    <path fill="#95A0A6" d="M19.015 11.003c1.104 0 2 .896 2 2 0 1.105-.896 2-2 2s-2-.895-2-2 .896-2 2-2z"></path>
    <path fill="#EBEBEB" d="M16.015 5.003c-6.075 0-11 4.926-11 11 0 6.075 4.925 11 11 11s11-4.925 11-11c0-6.074-4.924-11-11-11zm0 20.5c-5.238 0-9.5-4.262-9.5-9.5s4.262-9.5 9.5-9.5 9.5 4.262 9.5 9.5-4.261 9.5-9.5 9.5z"></path>
    <path fill="#459E8F" d="M16.015 27.003c-6.075 0-11-4.925-11-11 0-2.783 1.042-5.317 2.746-7.254-2.292 2.016-3.746 4.962-3.746 8.254 0 6.075 4.925 11 11 11 3.292 0 6.238-1.454 8.254-3.746-1.936 1.704-4.47 2.746-7.254 2.746z"></path>
  </g>
</svg>